<?xml version="1.0" encoding="utf-8"?>
<!-- Generator: Adobe Illustrator 27.9.0, SVG Export Plug-In . SVG Version: 6.00 Build 0)  -->
<svg version="1.1" id="Layer_1" xmlns="http://www.w3.org/2000/svg" xmlns:xlink="http://www.w3.org/1999/xlink" x="0px" y="0px"
	 viewBox="0 0 611.7 540.3" style="enable-background:new 0 0 611.7 540.3;" xml:space="preserve">
<style type="text/css">
	.st0{fill:none;}
	.st1{fill:url(#SVGID_1_);}
	.st2{fill:url(#SVGID_00000152965721250719985700000017831037080269937552_);}
	.st3{fill:url(#SVGID_00000027576008963144402270000014342776642919730361_);}
	.st4{fill:url(#SVGID_00000031198885971883769230000006960967553924938924_);}
	.st5{fill:url(#SVGID_00000138563085380921552680000007718244756425219753_);}
	.st6{fill:url(#SVGID_00000005986905076285947530000003619944642171229063_);}
	.st7{fill:url(#SVGID_00000047036599598992279020000007121332545037535143_);}
	.st8{fill:url(#SVGID_00000178195524549401966030000001103080401927518355_);}
	.st9{fill:url(#SVGID_00000106132081970797094770000002626804476553646979_);}
	.st10{fill:url(#SVGID_00000100340772903385993230000006150997860781952149_);}
	.st11{fill:url(#SVGID_00000025423458120920054930000007343377487867635100_);}
	.st12{fill:url(#SVGID_00000041984072081524323620000011024446248420336045_);}
	.st13{fill:url(#SVGID_00000027598162541524592290000000268867267696866700_);}
	.st14{fill:url(#SVGID_00000182493618596058700560000013725838124970380455_);}
	.st15{fill:url(#SVGID_00000146490524971900909000000001072845824249743276_);}
</style>
<g>
	<path class="st0" d="M277.1,314.1c0.4-0.7,0.7-1.5,1.1-2.2c7.3-13.7,14.5-27.5,21.9-41.2c1.8-3.4-0.6-4.1-2.5-5.2
		c-14.3-8.4-28.6-16.8-42.9-25.1c-1.2-0.7-2.5-1.2-3.8-1.8c-0.5,0.3-1,0.6-1.5,0.9c8.1,24.9,17.7,49.3,26.1,73.8
		C276,313.6,276.6,313.8,277.1,314.1z"/>
	<path class="st0" d="M333.4,313.6c0.5,0.1,1.1,0.1,1.6,0.2c9-25.2,18.1-50.3,27.1-75.4l-1.3-0.8c-16.6,9.8-33.1,19.5-49.6,29.4
		c-0.8,0.4-1.1,2.7-0.6,3.7C318.1,285,325.8,299.3,333.4,313.6z"/>
	<path class="st0" d="M313.9,258.6c11.5-6.9,23.2-13.6,34.7-20.5c2.5-1.5,4.6-3.5,6.9-5.2c-0.2-0.5-0.4-0.9-0.6-1.4
		c-15.6-0.1-30.6-2.1-41.1-16.9c-2.7,7.8-5,14.3-7.8,22.1c-2.5-7.6-4.6-13.7-6.8-20.3c-2.5,1.6-4.1,2.8-5.8,3.7
		c-6.6,3.4-13,7.5-20,9.5c-5.4,1.5-11.5,0-17.3,0.1c-1.5,0-2.9,1-4.3,1.6c1,1.2,1.6,2.8,2.8,3.5c14.2,8,28.7,15.8,42.9,24
		C303.2,262.1,308.3,261.9,313.9,258.6z"/>
	<path class="st0" d="M237.6,298.4c4.2,2.3,8.4,4.7,12.6,7c6.2,3.4,12.4,6.7,18.6,10.1c0.3-0.4,0.7-0.8,1-1.2
		c-8.4-23.1-16.8-46.3-25.2-69.4c-0.6,0-1.2,0.1-1.8,0.2c-0.4,1.1-0.9,2.2-1.1,3.3c-2.9,13.1-5.6,26.3-8.8,39.3
		C231.6,293,233.3,296,237.6,298.4z"/>
	<path class="st0" d="M280.3,192c-0.4-0.1-0.9,0.2-1.4,0.3c-6,1.1-12.1,1.9-18,3.4c-2.1,0.5-4.8,2.4-5.4,4.3
		c-2.7,7.9-4.8,16-7.4,25.4c8.9-0.5,16.9-0.2,24.6-1.7c6-1.2,11.8-4.1,17.2-7.1c4.4-2.5,5.8-7.6,3.4-11.6
		C290.2,199.6,288.2,192.7,280.3,192z"/>
	<path class="st0" d="M238.9,165c0.1,12.2,14,24.2,27.8,24.1c13.8-0.1,24.7-11.8,24.6-26.5c-0.1-12.1-13.6-23.9-27.4-23.8
		C250,138.9,238.7,150.8,238.9,165z M257.4,163.4c0.4-4.2,4.1-7.3,8.3-6.9c4.2,0.4,7.3,4.2,6.9,8.3c-0.4,4.1-4.3,7.3-8.3,6.9
		C260.2,171.3,257.1,167.5,257.4,163.4z"/>
	<path class="st0" d="M406.5,147.1c7.6,1.6,13.2-2.5,19.6-6.6c-6.6-10.9-12.8-21.2-19.5-32.5c-3.7,7.5-6.8,13.7-9.8,19.9
		C392.7,136.4,397.2,145.1,406.5,147.1z"/>
	<path class="st0" d="M410,161.6c-0.5,7.6-0.2,15.3-0.2,22.9c0,3.6,1.9,6.3,5.3,6.9c5.8,1,11.7,1.4,18.5,2.2
		c-0.9-7.1-1.5-12.6-2.3-18.2c-1.1-8-2.1-16.1-3.5-24.1c-0.2-1.3-2-3.4-3-3.4C417.5,148.2,410.4,154.6,410,161.6z"/>
	<path class="st0" d="M304.3,160.7c-5.9,1.8-11.3,10.9-9.8,17.1c2.1,8.5,4.5,16.9,6.9,25.3c1,3.6,2.2,7.1,3.6,11.5
		c1.5-1.7,2.4-2.3,2.6-3.1c3-10.3,6.1-20.6,8.6-31c2.2-9.3-0.5-14.7-8.7-19.1C306.5,160.9,305.2,160.4,304.3,160.7z"/>
	<path class="st0" d="M371.9,226.9c15.1,7,29.1,13.4,43.1,19.9c0.5-0.3,0.9-0.7,1.5-1.1c-4.1-15.6-8.1-31.1-12.4-47.9
		C393.1,207.7,382.9,217,371.9,226.9z"/>
	<path class="st0" d="M346.3,313.4c8.7-4.9,17.3-9.9,25.9-14.8c4.7-2.7,6-6.7,5-11.8c-1.6-8.6-3.1-17.2-4.9-25.8
		c-1.1-5.4-2.8-10.7-4.2-16c-0.6-0.1-1.1-0.3-1.7-0.4c-0.4,0.7-0.8,1.4-1.1,2.2c-7.7,21.2-15.3,42.5-22.9,63.8
		c-0.4,1,0.1,2.3,0.2,3.6C343.9,313.9,345.3,314,346.3,313.4z"/>
	<path class="st0" d="M367.7,106.9c-5.6,6.3-7.9,14.6-8.5,23c-0.2,2.2,1.1,5.6,2.8,6.7c5.8,3.7,24.6-0.2,27.7-6.9
		c3.4-7.3,7.5-14.4,11-21.7c0.9-1.9,1.4-5,0.4-6.6c-3.4-5.5-7.6-10.6-11.1-15.6C382,93.2,374.2,99.5,367.7,106.9z"/>
	<path class="st0" d="M417.1,226.3c0.6,2.4,2.6,4.5,3.9,6.7c1.2-2.1,2.5-4.3,3.7-6.4c0.2-0.5,0.4-0.9,0.6-1.4
		c2.7-8.3,5.5-16.7,8.6-25.8c-8.5-1-16-1.9-24.4-2.9C412.2,207.2,414.5,216.8,417.1,226.3z"/>
	<path class="st0" d="M228.6,144.8c-5.4-5.1-5.3-5.1-10.9-0.5c-1.6,1.4-3.8,2.3-5.1,3.9c-2.3,3-5.6,6.3-5.7,9.5
		c-0.2,9.4,0.9,18.9,1.6,28.3c0.2,2.4,1.5,3.2,4.2,2.2c7.4-2.8,15-5.3,22.5-7.8c2.7-0.9,3-2.2,2.1-4.9c-1.4-4.7-2.2-9.5-3.3-14.2
		C235.6,152.7,234.9,150.9,228.6,144.8z"/>
	<path class="st0" d="M375.3,244.2c-0.2,0.9-0.6,1.9-0.4,2.7c3,13.4,6.4,26.7,9.1,40.1c1.1,5.2,4.2,7.1,8.6,8.2c9,2.2,18,4.5,27,6.7
		c3,0.8,6.1,1.2,9.2,1.8c0.4-0.6,0.7-1.2,1.1-1.8c-17.8-19.5-35.6-39-53.3-58.5C376.1,243.7,375.7,243.9,375.3,244.2z"/>
	<path class="st0" d="M418.1,43.8c3.3,2.8,6.2,6,9.4,8.9c0.8,0.8,2,1.2,3,1.8c0.5-0.3,0.9-0.6,1.4-0.9c-3.8-11.2-7.7-22.3-12.1-34.9
		c-2,2.7-3.3,4-4.1,5.6C411.8,32,409.7,36.8,418.1,43.8z"/>
	<path class="st0" d="M179.8,52.5c8.2-2.2,17.8-10.8,18.7-16.7c1-6.3-2.2-11.2-7-16.5C187.4,30.9,183.7,41.4,179.8,52.5z"/>
	<path class="st0" d="M129.1,432.6c-19.4,0-33.9,16.8-33.9,44.7c0,27.9,14.6,45.2,34.2,45.2c19.6,0,33.9-17,33.9-44.9
		S148.5,432.6,129.1,432.6z"/>
	<path class="st0" d="M347.7,138.8c-12.7-0.2-27.5,10.7-27.1,20.9c0.6,14.9,4.1,29.5,24,29.3c15,1.3,27.9-13.7,27.9-23.7
		C372.5,150.9,361.6,139,347.7,138.8z M346.6,171.7c-4.1,0.1-7.8-3.3-7.9-7.4c-0.2-4.1,3.2-7.7,7.4-7.8c4.2-0.1,7.7,3.2,7.9,7.4
		C354.1,168,350.8,171.6,346.6,171.7z"/>
	<path class="st0" d="M345.9,194.4c-15.1-4.6-18.4-3.7-27.4,9.2c-0.3,0.4-0.6,0.8-0.9,1.2c-2.4,2.6-1.8,4.8,0.5,7.3
		c8.6,9.4,19,14.2,31,13.3c1.6,0,2.2,0,2.9,0c11-0.2,11-0.2,9.1-10.9C359.5,205.3,356.1,197.5,345.9,194.4z"/>
	<path class="st0" d="M352.8,118.5c-5.5-0.5-10.9-0.9-16.4-1.1c-4.9-0.2-8.7,1.7-11,6.2c-3.9,7.5-8.1,14.8-11.7,22.4
		c-1.5,3.1-1.7,6.8-2.4,10.2l1.8,0.7c2.1-2.3,4.4-4.5,6.3-6.9c7.5-9.6,16.7-16.3,29.4-17.4c5.1-0.5,8.6-7.9,6.6-12.4
		C355,119.4,353.7,118.6,352.8,118.5z"/>
	<path class="st0" d="M402.7,189.1c0.6-8.1,0.7-15.3,1.7-22.5c1.3-9.9-3.7-16.8-10.3-23c-3.4-3.2-7.1-3.2-10.6,0.1
		c-4.9,4.7-8.5,9.2-6.5,17.3c1.3,5.4-1.3,11.7-2.3,18.5C383,182.4,392.4,185.6,402.7,189.1z"/>
	<path class="st0" d="M248.8,203.9c0.6-2,1.3-4.1,1.7-6.2c1.7-8.5-5.9-15.2-14.2-12.5c-1.9,0.7-3.8,1.1-5.7,1.8
		c-6.3,2.3-12.5,4.7-19.7,7.4c11.1,9.8,21.2,18.7,32.1,28.3C245.2,215.6,247,209.7,248.8,203.9z"/>
	<path class="st0" d="M360.9,196.1c2.2,8.4,4.8,16.7,7.6,26.5c10.9-9.7,21-18.6,32.3-28.7c-10.7-3.3-19.9-6.9-29.5-8.9
		C365.4,183.8,359.5,190.8,360.9,196.1z"/>
	<path class="st0" d="M284.7,121.5c-1.4-2.3-5.3-4.1-8.2-4.3c-4.8-0.4-9.6,0.7-14.4,1.1c-6.2,0.5-7.3,2-5.8,8c1,3.9,3.6,5.9,7.3,6.6
		c8.1,1.5,15.7,4.2,21.5,10.4c3.4,3.6,6.6,7.4,10.1,11c1.2,1.2,2.9,1.9,4.4,2.8c0.5-0.4,0.9-0.7,1.3-1c-0.5-2.7-0.5-5.6-1.7-8
		C294.6,139.1,290,130.1,284.7,121.5z"/>
	<path class="st0" d="M375.3,303.9c-11.4,6.2-22.7,12.4-34,18.6c-2.9,1.5-1.8,3.3-0.7,5.3c5.7,10.5,11.2,21,16.8,31.5
		c0.6,1.1,1.4,2,2.9,4c6.1-20.8,11.7-40.1,17.5-59.7C376.3,303.8,375.7,303.7,375.3,303.9z"/>
	<path class="st0" d="M284.9,330.4c-7.7-2.9-8.7-3-12.5,4.2c-5.3,9.9-10.3,20.1-15.9,29.8c-2.8,4.8-2.3,8.3,1.3,12.4
		c13.3,15.2,26.3,30.5,39.4,45.7c1,1.1,2.3,2,4.4,4c0.1-3.1,0.3-4.9,0.3-6.6c0.2-20.3,0.4-40.5,0.5-60.8c0-3.3,0.1-6.7-0.5-9.8
		C300.4,339.3,294,333.9,284.9,330.4z"/>
	<path class="st0" d="M336.9,332.3c-2.4-4.6-5.3-5.2-9.9-2.6c-3.4,1.9-6.6,4-10,5.6c-6.2,2.8-8.7,7.5-8.7,14.2
		c0.2,22.5,0.1,44.9,0.1,67.3c0,2.4,0.4,4.8,0.8,8.6c2.1-1.8,3.2-2.5,4-3.4c13.1-15,26-30.2,39.1-45.2c3.5-4,3.7-8,1.4-12.4
		C348.2,353.7,342.6,342.9,336.9,332.3z"/>
	<path class="st0" d="M327.6,323.3c2.4-1.2,3.1-2.5,1.7-5.1c-7.7-14.5-15.2-29-22.9-43.7c-1,0.3-1.5,0.4-1.6,0.6
		c-7.9,14.5-15.8,29.1-23.4,43.8c-0.5,0.9,0.9,3.7,2.1,4.4c5.5,3.3,11.3,6.1,17,9.2c3.3,1.8,6.6,1.7,10,0
		C316.2,329.4,321.9,326.3,327.6,323.3z"/>
	<path class="st0" d="M217.6,302.1c-12.6,2.8-25.3,5.3-37.8,8.5c-2.6,0.6-5.3,3.1-6.6,5.5c-1.7,3.3-2.4,7.2-3,10.9
		c-2.3,14.9-4.4,29.9-6.6,44.8c-0.9,6.1-1.6,12.2-2.4,18.3c0.8,0.3,1.5,0.6,2.2,0.9c20.9-27.8,39.4-57.3,56.7-88.5
		C218.6,302.2,218,302,217.6,302.1z"/>
	<path class="st0" d="M234.3,303.3c-0.4,0.3-0.7,0.7-1.1,1l16.9,57.7c0.5,0.1,1.1,0.1,1.6,0.2c6.7-12.6,13.3-25.3,20.2-38.5
		C259,316.7,246.6,310,234.3,303.3z"/>
	<path class="st0" d="M225.6,305.1c-16.8,27.3-33.7,54.6-50.6,81.9c0.3,0.5,0.7,0.9,1,1.4c23.3-6.3,46.7-12.6,70.3-19.1
		c-6.6-22.1-12.8-43.1-19.1-64.2C226.6,305.1,226.1,305.1,225.6,305.1z"/>
	<path class="st0" d="M366.5,361.6c-1.8,6.4,0.4,9,6.9,10.7c13.9,3.6,27.8,7.3,41.7,10.9c6.3,1.7,12.7,3,19.1,4.4
		c0.3-0.4,0.6-0.8,1-1.4c-16.8-27.2-33.5-54.3-50.3-81.5C377.8,324,371.9,342.7,366.5,361.6z"/>
	<path class="st0" d="M554.5,434.1h-18.6v86.8h18.9c23.9,0,38-12.7,38-43.5C592.8,448.5,579.4,434.1,554.5,434.1z"/>
	<path class="st0" d="M440.6,320.3c-0.7-4.6-2.9-7.7-8-8.8c-8.5-1.9-16.9-4.4-25.4-6.5c-5.4-1.3-10.8-2.4-17.3-3.9
		c1.2,2.4,1.7,3.8,2.5,5c16.5,26.6,33,53.2,49.6,79.8c1.2,1.8,3.3,3.1,5,4.6c0.3-2.3,1.1-4.7,1-6.9c-1.2-12.4-2.7-24.7-4.1-37.1
		C442.9,337.7,441.8,329,440.6,320.3z"/>
	<path class="st0" d="M365.3,103.2c5.2-6.2,11.5-11.5,16.9-17.6c3.2-3.6,6-7.7,7.9-12c4.6-10.6,8.8-21.4,13-32.2
		c1.1-3,1.9-6.1,2.9-9.1c-0.4-0.3-0.9-0.6-1.4-0.9c-20.7,15.1-41.6,30-56.6,51.7c-6.2,9-11.4,18.5-13.9,29.6
		C346.9,114.9,357.1,112.8,365.3,103.2z"/>
	<path class="st0" d="M248.6,105.5c9,7.5,18.9,8.5,31,7.2c-8.2-15.3-14.7-30.9-26.1-43.2c-14.1-15.2-30.8-27.8-47.5-40.4
		c0.7,5.2,2,10,3.5,14.6C217.2,67.6,228.8,89,248.6,105.5z"/>
	<path class="st0" d="M217.2,121c4.1,13.6,14.5,16.5,26.7,16.9c7,0.2,8.9-2.7,7.7-9.7c-3-18.3-15-30.5-28.5-42.8
		c-4.2,4.9-8.5,9.2-11.8,14.1c-1.3,2-1.5,5.8-0.7,8.2C212.3,112.3,215.8,116.3,217.2,121z"/>
	<path class="st0" d="M203.6,147.3c4.5-2.4,8.9-5.1,12.8-8.3c1.4-1.1,2.2-4.6,1.5-6.1c-3.8-7.9-8.2-15.5-13.1-24.5
		c-6.9,11.5-13.1,21.7-19.9,32.6c4.7,2.2,8.7,4.3,13,6C199.6,147.7,202.1,148.1,203.6,147.3z"/>
	<path class="st0" d="M286.6,110.3c4.9-13.1,9.9-26.2,15.2-40.3c-13.2,0.8-25.1,1.6-38.1,2.5c7.4,13.4,14.3,25.7,21.2,38.1
		C285.5,110.5,286,110.4,286.6,110.3z"/>
	<path class="st0" d="M294.9,129.8c4,5.8,6.9,12.3,10.9,19.6c5.8-10.8,11-20.3,15.9-30c0.7-1.3,0.1-3.3-0.4-4.8
		c-2.1-5.9-4.4-11.8-6.7-17.6c-2.7-6.7-5.5-13.4-8.2-20.1c-0.4,0-0.9,0-1.4,0c-3.8,9.6-7.1,19.5-11.6,28.9
		C289.3,114.4,289.4,121.8,294.9,129.8z"/>
	<path class="st0" d="M326.8,110.5c6.9-12.5,13.8-24.9,21.1-38.2c-13.4-0.7-25.2-1.4-37.9-2.1c5.3,14.1,10.1,27,14.9,39.9
		C325.5,110.2,326.2,110.4,326.8,110.5z"/>
	<path class="st0" d="M203,183c-0.4-6.1-0.9-12.2-1.3-18.3c-0.6-10.6-2.9-13.4-13-16.5c-3.3-1-5-0.5-5.5,3.2
		c-1.8,13.8-3.6,27.5-5.5,42.5c7.2-1.1,13.6-1.9,19.8-3.2C201.3,189.9,203.3,187.1,203,183z"/>
	<path class="st0" d="M220.8,294.6c2.3-0.5,4.9-3.7,5.6-6.1c2.8-10,4.9-20.2,7.1-30.4c0.9-4.4,1.7-8.9,2.5-13.3
		c-0.6-0.4-1.2-0.7-1.8-1.1c-18.3,18.9-35.7,38.7-53.8,58.2c1.1,0.5,1.4,0.8,1.6,0.8C195,300.1,208,297.7,220.8,294.6z"/>
	<path class="st0" d="M207.4,197.4c-4.5,17.4-8.5,33.3-12.6,49.3c0.4,0.2,0.9,0.5,1.3,0.7c14.1-6.6,28.3-13.3,43.9-20.6
		C228.8,216.7,218.5,207.4,207.4,197.4z"/>
	<path class="st0" d="M177.6,199.3c4.1,13.6,7.8,26.1,11.6,38.6c0.8,0,1.7,0,2.5,0c3.5-13.5,6.9-27.1,10.7-41.8
		C193.4,197.2,185.9,198.2,177.6,199.3z"/>
	
		<radialGradient id="SVGID_1_" cx="243.5283" cy="465.3506" r="346.9589" fx="-7.0275" fy="461.9731" gradientUnits="userSpaceOnUse">
		<stop  offset="4.035168e-02" style="stop-color:#7A649B"/>
		<stop  offset="9.746089e-02" style="stop-color:#2E5088"/>
		<stop  offset="0.1952" style="stop-color:#327085"/>
		<stop  offset="0.2918" style="stop-color:#B3CB6A"/>
		<stop  offset="0.3762" style="stop-color:#D7CB56"/>
		<stop  offset="0.5161" style="stop-color:#B5CB69"/>
		<stop  offset="0.7187" style="stop-color:#327085"/>
		<stop  offset="0.9004" style="stop-color:#2E5088"/>
		<stop  offset="0.9983" style="stop-color:#7A649B"/>
	</radialGradient>
	<path class="st1" d="M555,428.2h-25.6v98.6h24.5c26.9,0,45.4-14.5,45.4-49.7C599.3,443.1,581.8,428.2,555,428.2z M554.8,520.9
		h-18.9v-86.8h18.6c24.9,0,38.3,14.4,38.3,43.2C592.8,508.2,578.7,520.9,554.8,520.9z"/>
	
		<radialGradient id="SVGID_00000088833767031092481150000012560623807353671057_" cx="243.5283" cy="465.3506" r="346.9589" fx="-7.0275" fy="461.9731" gradientUnits="userSpaceOnUse">
		<stop  offset="4.035168e-02" style="stop-color:#7A649B"/>
		<stop  offset="9.746089e-02" style="stop-color:#2E5088"/>
		<stop  offset="0.1952" style="stop-color:#327085"/>
		<stop  offset="0.2918" style="stop-color:#B3CB6A"/>
		<stop  offset="0.3762" style="stop-color:#D7CB56"/>
		<stop  offset="0.5161" style="stop-color:#B5CB69"/>
		<stop  offset="0.7187" style="stop-color:#327085"/>
		<stop  offset="0.9004" style="stop-color:#2E5088"/>
		<stop  offset="0.9983" style="stop-color:#7A649B"/>
	</radialGradient>
	<path style="fill:url(#SVGID_00000088833767031092481150000012560623807353671057_);" d="M304.6,438.1c-0.2-0.4-0.5-0.8-0.8-1.1
		c-0.4-0.5-1-1-1.5-1.6v91.3h55.2v-5.9h-48.7v-85c-1.1,1.1-2.1,2.2-2.9,3.4C305.4,438.9,305,438.5,304.6,438.1z"/>
	
		<radialGradient id="SVGID_00000166671077475682838380000014387498528397653656_" cx="243.5283" cy="465.3506" r="346.9589" fx="-7.0275" fy="461.9731" gradientUnits="userSpaceOnUse">
		<stop  offset="4.035168e-02" style="stop-color:#7A649B"/>
		<stop  offset="9.746089e-02" style="stop-color:#2E5088"/>
		<stop  offset="0.1952" style="stop-color:#327085"/>
		<stop  offset="0.2918" style="stop-color:#B3CB6A"/>
		<stop  offset="0.3762" style="stop-color:#D7CB56"/>
		<stop  offset="0.5161" style="stop-color:#B5CB69"/>
		<stop  offset="0.7187" style="stop-color:#327085"/>
		<stop  offset="0.9004" style="stop-color:#2E5088"/>
		<stop  offset="0.9983" style="stop-color:#7A649B"/>
	</radialGradient>
	<polygon style="fill:url(#SVGID_00000166671077475682838380000014387498528397653656_);" points="396.4,519.6 365.6,428.2 
		358.8,428.2 392.9,527.1 400.1,527.1 434,428.2 427.4,428.2 	"/>
	
		<radialGradient id="SVGID_00000142863798304934607610000016136956730653235899_" cx="243.5283" cy="465.3506" r="346.9589" fx="-7.0275" fy="461.9731" gradientUnits="userSpaceOnUse">
		<stop  offset="4.035168e-02" style="stop-color:#7A649B"/>
		<stop  offset="9.746089e-02" style="stop-color:#2E5088"/>
		<stop  offset="0.1952" style="stop-color:#327085"/>
		<stop  offset="0.2918" style="stop-color:#B3CB6A"/>
		<stop  offset="0.3762" style="stop-color:#D7CB56"/>
		<stop  offset="0.5161" style="stop-color:#B5CB69"/>
		<stop  offset="0.7187" style="stop-color:#327085"/>
		<stop  offset="0.9004" style="stop-color:#2E5088"/>
		<stop  offset="0.9983" style="stop-color:#7A649B"/>
	</radialGradient>
	<polygon style="fill:url(#SVGID_00000142863798304934607610000016136956730653235899_);" points="459.2,477.2 489.1,477.2 
		489.1,471.3 459.2,471.3 459.2,434.1 508.5,434.1 508.5,428.2 452.8,428.2 452.8,526.8 510.6,526.8 510.6,520.9 459.2,520.9 	"/>
	
		<radialGradient id="SVGID_00000118368032658277136770000017927251472099185058_" cx="243.5283" cy="465.3506" r="346.9589" fx="-7.0275" fy="461.9731" gradientUnits="userSpaceOnUse">
		<stop  offset="4.035168e-02" style="stop-color:#7A649B"/>
		<stop  offset="9.746089e-02" style="stop-color:#2E5088"/>
		<stop  offset="0.1952" style="stop-color:#327085"/>
		<stop  offset="0.2918" style="stop-color:#B3CB6A"/>
		<stop  offset="0.3762" style="stop-color:#D7CB56"/>
		<stop  offset="0.5161" style="stop-color:#B5CB69"/>
		<stop  offset="0.7187" style="stop-color:#327085"/>
		<stop  offset="0.9004" style="stop-color:#2E5088"/>
		<stop  offset="0.9983" style="stop-color:#7A649B"/>
	</radialGradient>
	<polygon style="fill:url(#SVGID_00000118368032658277136770000017927251472099185058_);" points="262.2,518.3 238.5,428.2 
		230.9,428.2 207.2,518.3 188.9,428.2 182.5,428.2 203.4,527.1 210.9,527.1 234.6,437.4 258.2,527.1 265.8,527.1 287,428.2 
		280.6,428.2 	"/>
	
		<radialGradient id="SVGID_00000058566860730350627110000013716659194975327409_" cx="243.5283" cy="465.3506" r="346.9589" fx="-7.0275" fy="461.9731" gradientUnits="userSpaceOnUse">
		<stop  offset="4.035168e-02" style="stop-color:#7A649B"/>
		<stop  offset="9.746089e-02" style="stop-color:#2E5088"/>
		<stop  offset="0.1952" style="stop-color:#327085"/>
		<stop  offset="0.2918" style="stop-color:#B3CB6A"/>
		<stop  offset="0.3762" style="stop-color:#D7CB56"/>
		<stop  offset="0.5161" style="stop-color:#B5CB69"/>
		<stop  offset="0.7187" style="stop-color:#327085"/>
		<stop  offset="0.9004" style="stop-color:#2E5088"/>
		<stop  offset="0.9983" style="stop-color:#7A649B"/>
	</radialGradient>
	<path style="fill:url(#SVGID_00000058566860730350627110000013716659194975327409_);" d="M45.7,472.8
		c-20.3-7.5-24.8-12.3-24.8-22.3c0-9.4,7-18,22.5-18c11,0,17.9,3.2,24.9,8.6l4.2-5.1c-7.7-5.6-15.6-9.4-28.7-9.4
		c-18.5,0-29.4,10.3-29.4,24.4c0,13.5,6.5,19.7,27.7,27.6c19.6,7.2,25.8,12.8,25.8,23.7c0,13.2-10.6,20.1-23.9,20.1
		c-11,0-19.6-3.9-27.6-10.7l-4.4,4.8c8.2,7.2,18.9,11.8,31.7,11.8c17.9,0,30.7-10.1,30.7-26.3C74.4,487.8,67.5,480.9,45.7,472.8z"/>
	
		<radialGradient id="SVGID_00000031901324353676842150000010914549974971298234_" cx="243.5283" cy="465.3506" r="346.9589" fx="-7.0275" fy="461.9731" gradientUnits="userSpaceOnUse">
		<stop  offset="4.035168e-02" style="stop-color:#7A649B"/>
		<stop  offset="9.746089e-02" style="stop-color:#2E5088"/>
		<stop  offset="0.1952" style="stop-color:#327085"/>
		<stop  offset="0.2918" style="stop-color:#B3CB6A"/>
		<stop  offset="0.3762" style="stop-color:#D7CB56"/>
		<stop  offset="0.5161" style="stop-color:#B5CB69"/>
		<stop  offset="0.7187" style="stop-color:#327085"/>
		<stop  offset="0.9004" style="stop-color:#2E5088"/>
		<stop  offset="0.9983" style="stop-color:#7A649B"/>
	</radialGradient>
	<path style="fill:url(#SVGID_00000031901324353676842150000010914549974971298234_);" d="M129.4,426.6c-23.8,0-40.7,20-40.7,50.8
		s16.6,50.8,40.4,50.8c23.8,0,40.7-20.3,40.7-51.1C169.8,446.4,153.2,426.6,129.4,426.6z M129.4,522.4c-19.6,0-34.2-17.3-34.2-45.2
		c0-27.9,14.5-44.7,33.9-44.7c19.4,0,34.2,17,34.2,44.9S148.9,522.4,129.4,522.4z"/>
	
		<radialGradient id="SVGID_00000038399472722551994720000017881402426075500717_" cx="306.5231" cy="286.0537" r="509.0068" gradientTransform="matrix(1 0 0 -1 0 522.4744)" gradientUnits="userSpaceOnUse">
		<stop  offset="6.668252e-02" style="stop-color:#D7CB56"/>
		<stop  offset="0.3831" style="stop-color:#B3CB6A"/>
		<stop  offset="0.525" style="stop-color:#327085"/>
		<stop  offset="0.6619" style="stop-color:#2E5088"/>
		<stop  offset="0.902" style="stop-color:#7A649B"/>
	</radialGradient>
	<path style="fill:url(#SVGID_00000038399472722551994720000017881402426075500717_);" d="M71.2,153.7c-0.8-1-1.6-2-2.4-3
		c0.3,0.6,0.7,1.3,1,1.9C70.3,153,70.7,153.4,71.2,153.7z"/>
	
		<radialGradient id="SVGID_00000065075170650924988020000007946132026896633496_" cx="306.5231" cy="286.0536" r="509.0069" gradientTransform="matrix(1 0 0 -1 0 522.4744)" gradientUnits="userSpaceOnUse">
		<stop  offset="6.668252e-02" style="stop-color:#D7CB56"/>
		<stop  offset="0.3831" style="stop-color:#B3CB6A"/>
		<stop  offset="0.525" style="stop-color:#327085"/>
		<stop  offset="0.6619" style="stop-color:#2E5088"/>
		<stop  offset="0.902" style="stop-color:#7A649B"/>
	</radialGradient>
	<path style="fill:url(#SVGID_00000065075170650924988020000007946132026896633496_);" d="M369.1,396c0-0.1,0-0.2,0-0.3
		C369.1,395.8,369.1,395.9,369.1,396z"/>
	
		<radialGradient id="SVGID_00000067923573906632545920000016071247863343126424_" cx="306.5231" cy="286.0536" r="509.0069" gradientTransform="matrix(1 0 0 -1 0 522.4744)" gradientUnits="userSpaceOnUse">
		<stop  offset="6.668252e-02" style="stop-color:#D7CB56"/>
		<stop  offset="0.3831" style="stop-color:#B3CB6A"/>
		<stop  offset="0.525" style="stop-color:#327085"/>
		<stop  offset="0.6619" style="stop-color:#2E5088"/>
		<stop  offset="0.902" style="stop-color:#7A649B"/>
	</radialGradient>
	<path style="fill:url(#SVGID_00000067923573906632545920000016071247863343126424_);" d="M369.9,399.3c-0.2-1-0.5-2-0.7-3
		c0-0.1-0.1-0.2-0.1-0.3c0.1,1.1,0.2,2.1,0.3,3.2C369.6,399.2,369.7,399.2,369.9,399.3z"/>
	
		<radialGradient id="SVGID_00000079482914369980434780000008181513174878052021_" cx="306.5231" cy="286.0536" r="509.0069" gradientTransform="matrix(1 0 0 -1 0 522.4744)" gradientUnits="userSpaceOnUse">
		<stop  offset="6.668252e-02" style="stop-color:#D7CB56"/>
		<stop  offset="0.3831" style="stop-color:#B3CB6A"/>
		<stop  offset="0.525" style="stop-color:#327085"/>
		<stop  offset="0.6619" style="stop-color:#2E5088"/>
		<stop  offset="0.902" style="stop-color:#7A649B"/>
	</radialGradient>
	<path style="fill:url(#SVGID_00000079482914369980434780000008181513174878052021_);" d="M455.1,396.2c0.3-0.1,0.5-0.1,0.8-0.2
		c0.1,0,0.2-0.1,0.4-0.1c0.1-0.1,0.3-0.2,0.6-0.3c-0.5-1.2-0.4-2.2-0.5-3.2c-2-15-4.1-29.9-6.1-44.9c-1.1-8.4-2.3-16.9-3.3-25.3
		c-0.3-0.6-0.4-1.3-0.4-2.1c0-4.4-1.4-8.6-3.3-12.5c0,0,0,0,0-0.1c-0.4-0.2-0.8-0.5-1.1-0.8c-0.4-0.2-0.7-0.4-1-0.6
		c-6.3-6.6-12.4-13.4-18.6-20.1c-12.4-13.6-24.9-27.2-37.3-40.9c-1.1-1.2-1.4-3-2-4.6c1.7,0.2,3.5,0,5,0.6
		c7.1,2.7,14.2,5.5,21.1,8.6c1.5,0.7,2.9,1.4,4.2,2.3c1.9,0.9,3.4,2.1,5.3,3c1,0.4,2.2,0.4,3-0.2c0.2-0.5,0.4-1,0.7-1.4
		c0.1-0.2,0.1-0.4,0.2-0.5c1.8-4.6,3.8-9,5.3-13.6l10.3-33.5c0.1-0.9,0.2-1.9,0.2-2.8c0.1-5.7,0.5-11.5,0-17.2
		c-0.7-8.1-2.2-16.1-3.2-24.2c-1.4-11.4-2.5-22.8-9.4-32.6c-9.5-13.5-18.7-27.4-28.2-40.9c-2.9-4.2-3.8-8.1-1.7-13
		c3.8-8.8,7.1-17.9,10.7-26.8c1.9-4.6,3-4.8,6.7-1.3c6.9,6.5,13.6,13.2,20.5,19.8c2.5,2.4,5.3,4.4,8,6.7c0.5-3.3,0.2-5.9-0.6-8.4
		c-5.5-16.4-11-32.7-16.6-49c-2.3-6.9-4.6-7.7-10.2-2.8c-18,15.5-36,31-53.6,47c-6.5,5.9-13.2,8.5-21.7,7.3
		c-3.9-0.6-7.9-1.2-11.8-1.7c-13.5-1.9-27.1-3.2-40.7-0.5c-5.8,1.2-11.9,2.3-17.8,1.9c-4.9-0.3-10.5-1.8-14.1-4.8
		c-12.4-10-24-21-36-31.4c-7.5-6.5-15.2-12.8-23-19c-4.1-3.3-6.1-2.6-7.9,2.6c-6.2,17.3-12.3,34.7-18.3,52.1c-0.8,2.3-0.7,4.9-1,7.3
		c2.5-0.7,3.7-1.8,4.8-2.9c7.8-7.5,15.4-15.2,23.3-22.6c4.4-4.2,7.3-3.4,9.7,2.3c2.7,6.6,5.2,13.3,8.3,19.7
		c3.4,7.1,2.6,13.3-1.8,19.6c-8.1,11.7-15.9,23.6-23.9,35.4c-6,8.9-11.6,17.7-11,29.2c0.2,3.9-1.3,7.8-1.8,11.8
		c-1.4,10.3-3,20.7-4.1,31l12.1,37.6c0.1,0.3,0.2,0.6,0.3,0.9l0.7,2.1c0,0.1,0.1,0.2,0.1,0.3l3.5,10.8c2.6,3.3,5.9,3.7,11.3,1.5
		c7.7-3.1,15.2-6.7,22.8-9.9c1.4-0.6,3.1-0.3,4.6-0.4c-0.5,1.5-0.6,3.5-1.7,4.6c-18.2,20.1-36.6,40-54.9,60
		c-0.1,0.1-0.2,0.1-0.2,0.2c-0.3,0.4-0.6,0.8-1,1.1c-0.4,0.7-0.9,1.3-1.5,1.8c-0.2,0.4-0.5,0.7-0.9,1c-0.1,0.2-0.3,0.5-0.5,0.7
		c-0.1,0.3-0.2,0.6-0.3,0.9c0,0.6-0.1,1.2-0.3,1.8c0,0.6,0,1.2-0.1,1.8c0.1,0.6,0,1.2-0.1,1.9c0.4,1.2-0.2,2.8-0.4,4.2
		c-3.7,26.5-7.5,52.9-11.4,80.1c0.5,0,1,0,1.5,0c0.3-0.1,0.6-0.2,1-0.2c6.2-0.7,11.6-3.9,17.7-5c0.6-0.3,1.3-0.5,2-0.5
		c0.3-0.1,0.5-0.2,0.8-0.3c18.1-4.9,36.3-9.7,54.4-14.6c0.3-0.1,0.6-0.3,0.9-0.3c0.2-0.1,0.4-0.2,0.7-0.3c3.6-1.1,7.1-2.3,10.7-3
		c0.5-0.3,1-0.4,1.6-0.5c0.6-0.3,1.3-0.4,2.1-0.4c2.1,0,3.6,1.1,4.3,2.6c0.2,0.2,0.3,0.4,0.5,0.7c0.2,0.2,0.4,0.4,0.6,0.7h0.1
		c13.8,16,27.7,32,41.5,48c0.2,0.2,0.4,0.4,0.6,0.7c1.1,1.2,2.1,2.4,3.2,3.7c0.7,0.6,1.4,1.3,2.1,1.9c0.4,0.4,0.7,0.8,1.1,1.1
		c0.2,0.2,0.4,0.4,0.6,0.5v-7.3h6.5v7.7c0.2-0.2,0.4-0.4,0.7-0.7c1.1-1.2,2.3-2.3,3.5-3.3c2.1-2.4,4.3-4.6,6.5-6.9
		c13.4-15.6,26.3-30.6,39.2-45.6c4.5-5.7,10.7-1.8,16.3-0.5c0.5,0.1,1,0.3,1.4,0.6v-0.1c5.7,1.4,11.4,2.7,17.1,4.1
		c12.7,3.4,25.5,6.8,38.2,10.2c0.6-0.1,1.2,0,1.8,0.2c1.6,0.6,3.4,0.8,5.1,1.1c0.2,0,0.4,0.1,0.6,0.2c5.1,0.7,10.2,2,15.2,1.2
		C454.6,396.3,454.8,396.3,455.1,396.2z M415.7,24.3c0.8-1.6,2.1-2.9,4.1-5.6c4.4,12.6,8.3,23.7,12.1,34.9c-0.5,0.3-0.9,0.6-1.4,0.9
		c-1-0.6-2.2-1-3-1.8c-3.2-2.9-6.1-6.1-9.4-8.9C409.7,36.8,411.8,32,415.7,24.3z M198.5,35.8c-0.9,5.9-10.5,14.5-18.7,16.7
		c3.9-11.1,7.6-21.6,11.7-33.2C196.3,24.6,199.5,29.5,198.5,35.8z M429.9,301.9c-0.4,0.6-0.7,1.2-1.1,1.8c-3.1-0.6-6.2-1-9.2-1.8
		c-9-2.2-18-4.5-27-6.7c-4.4-1.1-7.5-3-8.6-8.2c-2.7-13.4-6.1-26.7-9.1-40.1c-0.2-0.8,0.2-1.8,0.4-2.7c0.4-0.3,0.8-0.5,1.3-0.8
		C394.3,262.9,412.1,282.4,429.9,301.9z M237.3,175.5c0.9,2.7,0.6,4-2.1,4.9c-7.5,2.5-15.1,5-22.5,7.8c-2.7,1-4,0.2-4.2-2.2
		c-0.7-9.4-1.8-18.9-1.6-28.3c0.1-3.2,3.4-6.5,5.7-9.5c1.3-1.6,3.5-2.5,5.1-3.9c5.6-4.6,5.5-4.6,10.9,0.5c6.3,6.1,7,7.9,5.4,16.5
		C235.1,166,235.9,170.8,237.3,175.5z M230.6,187c1.9-0.7,3.8-1.1,5.7-1.8c8.3-2.7,15.9,4,14.2,12.5c-0.4,2.1-1.1,4.2-1.7,6.2
		c-1.8,5.8-3.6,11.7-5.8,18.8c-10.9-9.6-21-18.5-32.1-28.3C218.1,191.7,224.3,189.3,230.6,187z M377,161c-2-8.1,1.6-12.6,6.5-17.3
		c3.5-3.3,7.2-3.3,10.6-0.1c6.6,6.2,11.6,13.1,10.3,23c-1,7.2-1.1,14.4-1.7,22.5c-10.3-3.5-19.7-6.7-28-9.6
		C375.7,172.7,378.3,166.4,377,161z M400.8,193.9c-11.3,10.1-21.4,19-32.3,28.7c-2.8-9.8-5.4-18.1-7.6-26.5
		c-1.4-5.3,4.5-12.3,10.4-11.1C380.9,187,390.1,190.6,400.8,193.9z M352,225.4c-0.7,0-1.3,0-2.9,0c-12,0.9-22.4-3.9-31-13.3
		c-2.3-2.5-2.9-4.7-0.5-7.3c0.3-0.4,0.6-0.8,0.9-1.2c9-12.9,12.3-13.8,27.4-9.2c10.2,3.1,13.6,10.9,15.2,20.1
		C363,225.2,363,225.2,352,225.4z M344.6,189c-19.9,0.2-23.4-14.4-24-29.3c-0.4-10.2,14.4-21.1,27.1-20.9
		c13.9,0.2,24.8,12.1,24.8,26.5C372.5,175.3,359.6,190.3,344.6,189z M348.8,132.6c-12.7,1.1-21.9,7.8-29.4,17.4
		c-1.9,2.4-4.2,4.6-6.3,6.9l-1.8-0.7c0.7-3.4,0.9-7.1,2.4-10.2c3.6-7.6,7.8-14.9,11.7-22.4c2.3-4.5,6.1-6.4,11-6.2
		c5.5,0.2,10.9,0.6,16.4,1.1c0.9,0.1,2.2,0.9,2.6,1.7C357.4,124.7,353.9,132.1,348.8,132.6z M316.2,180.5c-2.5,10.4-5.6,20.7-8.6,31
		c-0.2,0.8-1.1,1.4-2.6,3.1c-1.4-4.4-2.6-7.9-3.6-11.5c-2.4-8.4-4.8-16.8-6.9-25.3c-1.5-6.2,3.9-15.3,9.8-17.1
		c0.9-0.3,2.2,0.2,3.2,0.7C315.7,165.8,318.4,171.2,316.2,180.5z M289.9,216.6c-5.4,3-11.2,5.9-17.2,7.1c-7.7,1.5-15.7,1.2-24.6,1.7
		c2.6-9.4,4.7-17.5,7.4-25.4c0.6-1.9,3.3-3.8,5.4-4.3c5.9-1.5,12-2.3,18-3.4c0.5-0.1,1-0.4,1.4-0.3c7.9,0.7,9.9,7.6,13,13
		C295.7,209,294.3,214.1,289.9,216.6z M299.6,157.1c-1.5-0.9-3.2-1.6-4.4-2.8c-3.5-3.6-6.7-7.4-10.1-11c-5.8-6.2-13.4-8.9-21.5-10.4
		c-3.7-0.7-6.3-2.7-7.3-6.6c-1.5-6-0.4-7.5,5.8-8c4.8-0.4,9.6-1.5,14.4-1.1c2.9,0.2,6.8,2,8.2,4.3c5.3,8.6,9.9,17.6,14.5,26.6
		c1.2,2.4,1.2,5.3,1.7,8C300.5,156.4,300.1,156.7,299.6,157.1z M263.9,138.8c13.8-0.1,27.3,11.7,27.4,23.8
		c0.1,14.7-10.8,26.4-24.6,26.5c-13.8,0.1-27.7-11.9-27.8-24.1C238.7,150.8,250,138.9,263.9,138.8z M242.8,245.1
		c0.6-0.1,1.2-0.2,1.8-0.2c8.4,23.1,16.8,46.3,25.2,69.4c-0.3,0.4-0.7,0.8-1,1.2c-6.2-3.4-12.4-6.7-18.6-10.1
		c-4.2-2.3-8.4-4.7-12.6-7c-4.3-2.4-6-5.4-4.7-10.7c3.2-13,5.9-26.2,8.8-39.3C241.9,247.3,242.4,246.2,242.8,245.1z M249.4,239.5
		c0.5-0.3,1-0.6,1.5-0.9c1.3,0.6,2.6,1.1,3.8,1.8c14.3,8.3,28.6,16.7,42.9,25.1c1.9,1.1,4.3,1.8,2.5,5.2
		c-7.4,13.7-14.6,27.5-21.9,41.2c-0.4,0.7-0.7,1.5-1.1,2.2c-0.5-0.3-1.1-0.5-1.6-0.8C267.1,288.8,257.5,264.4,249.4,239.5z
		 M297.5,258.8c-14.2-8.2-28.7-16-42.9-24c-1.2-0.7-1.8-2.3-2.8-3.5c1.4-0.6,2.8-1.6,4.3-1.6c5.8-0.1,11.9,1.4,17.3-0.1
		c7-2,13.4-6.1,20-9.5c1.7-0.9,3.3-2.1,5.8-3.7c2.2,6.6,4.3,12.7,6.8,20.3c2.8-7.8,5.1-14.3,7.8-22.1c10.5,14.8,25.5,16.8,41.1,16.9
		c0.2,0.5,0.4,0.9,0.6,1.4c-2.3,1.7-4.4,3.7-6.9,5.2c-11.5,6.9-23.2,13.6-34.7,20.5C308.3,261.9,303.2,262.1,297.5,258.8z
		 M311.2,267c16.5-9.9,33-19.6,49.6-29.4l1.3,0.8c-9,25.1-18.1,50.2-27.1,75.4c-0.5-0.1-1.1-0.1-1.6-0.2
		c-7.6-14.3-15.3-28.6-22.8-42.9C310.1,269.7,310.4,267.4,311.2,267z M342.4,310.6c7.6-21.3,15.2-42.6,22.9-63.8
		c0.3-0.8,0.7-1.5,1.1-2.2c0.6,0.1,1.1,0.3,1.7,0.4c1.4,5.3,3.1,10.6,4.2,16c1.8,8.6,3.3,17.2,4.9,25.8c1,5.1-0.3,9.1-5,11.8
		c-8.6,4.9-17.2,9.9-25.9,14.8c-1,0.6-2.4,0.5-3.7,0.8C342.5,312.9,342,311.6,342.4,310.6z M415,246.8c-14-6.5-28-12.9-43.1-19.9
		c11-9.9,21.2-19.2,32.2-29.1c4.3,16.8,8.3,32.3,12.4,47.9C415.9,246.1,415.5,246.5,415,246.8z M425.3,225.2
		c-0.2,0.5-0.4,0.9-0.6,1.4c-1.2,2.1-2.5,4.3-3.7,6.4c-1.3-2.2-3.3-4.3-3.9-6.7c-2.6-9.5-4.9-19.1-7.6-29.8c8.4,1,15.9,1.9,24.4,2.9
		C430.8,208.5,428,216.9,425.3,225.2z M427.8,151.3c1.4,8,2.4,16.1,3.5,24.1c0.8,5.6,1.4,11.1,2.3,18.2c-6.8-0.8-12.7-1.2-18.5-2.2
		c-3.4-0.6-5.3-3.3-5.3-6.9c0-7.6-0.3-15.3,0.2-22.9c0.4-7,7.5-13.4,14.8-13.7C425.8,147.9,427.6,150,427.8,151.3z M426.1,140.5
		c-6.4,4.1-12,8.2-19.6,6.6c-9.3-2-13.8-10.7-9.7-19.2c3-6.2,6.1-12.4,9.8-19.9C413.3,119.3,419.5,129.6,426.1,140.5z M401.1,101.4
		c1,1.6,0.5,4.7-0.4,6.6c-3.5,7.3-7.6,14.4-11,21.7c-3.1,6.7-21.9,10.6-27.7,6.9c-1.7-1.1-3-4.5-2.8-6.7c0.6-8.4,2.9-16.7,8.5-23
		c6.5-7.4,14.3-13.7,22.3-21.1C393.5,90.8,397.7,95.9,401.1,101.4z M404.6,31.4c0.5,0.3,1,0.6,1.4,0.9c-1,3-1.8,6.1-2.9,9.1
		c-4.2,10.8-8.4,21.6-13,32.2c-1.9,4.3-4.7,8.4-7.9,12c-5.4,6.1-11.7,11.4-16.9,17.6c-8.2,9.6-18.4,11.7-31.2,9.5
		c2.5-11.1,7.7-20.6,13.9-29.6C363,61.4,383.9,46.5,404.6,31.4z M347.9,72.3c-7.3,13.3-14.2,25.7-21.1,38.2
		c-0.6-0.1-1.3-0.3-1.9-0.4c-4.8-12.9-9.6-25.8-14.9-39.9C322.7,70.9,334.5,71.6,347.9,72.3z M305,76.9c0.5,0,1,0,1.4,0
		c2.7,6.7,5.5,13.4,8.2,20.1c2.3,5.8,4.6,11.7,6.7,17.6c0.5,1.5,1.1,3.5,0.4,4.8c-4.9,9.7-10.1,19.2-15.9,30
		c-4-7.3-6.9-13.8-10.9-19.6c-5.5-8-5.6-15.4-1.5-24C297.9,96.4,301.2,86.5,305,76.9z M301.8,70c-5.3,14.1-10.3,27.2-15.2,40.3
		c-0.6,0.1-1.1,0.2-1.7,0.3c-6.9-12.4-13.8-24.7-21.2-38.1C276.7,71.6,288.6,70.8,301.8,70z M209.5,43.7c-1.5-4.6-2.8-9.4-3.5-14.6
		c16.7,12.6,33.4,25.2,47.5,40.4c11.4,12.3,17.9,27.9,26.1,43.2c-12.1,1.3-22,0.3-31-7.2C228.8,89,217.2,67.6,209.5,43.7z
		 M211.3,99.5c3.3-4.9,7.6-9.2,11.8-14.1c13.5,12.3,25.5,24.5,28.5,42.8c1.2,7-0.7,9.9-7.7,9.7c-12.2-0.4-22.6-3.3-26.7-16.9
		c-1.4-4.7-4.9-8.7-6.6-13.3C209.8,105.3,210,101.5,211.3,99.5z M204.8,108.4c4.9,9,9.3,16.6,13.1,24.5c0.7,1.5-0.1,5-1.5,6.1
		c-3.9,3.2-8.3,5.9-12.8,8.3c-1.5,0.8-4,0.4-5.7-0.3c-4.3-1.7-8.3-3.8-13-6C191.7,130.1,197.9,119.9,204.8,108.4z M183.2,151.4
		c0.5-3.7,2.2-4.2,5.5-3.2c10.1,3.1,12.4,5.9,13,16.5c0.4,6.1,0.9,12.2,1.3,18.3c0.3,4.1-1.7,6.9-5.5,7.7
		c-6.2,1.3-12.6,2.1-19.8,3.2C179.6,178.9,181.4,165.2,183.2,151.4z M191.7,237.9c-0.8,0-1.7,0-2.5,0c-3.8-12.5-7.5-25-11.6-38.6
		c8.3-1.1,15.8-2.1,24.8-3.2C198.6,210.8,195.2,224.4,191.7,237.9z M196.1,247.4c-0.4-0.2-0.9-0.5-1.3-0.7
		c4.1-16,8.1-31.9,12.6-49.3c11.1,10,21.4,19.3,32.6,29.4C224.4,234.1,210.2,240.8,196.1,247.4z M234.2,243.7
		c0.6,0.4,1.2,0.7,1.8,1.1c-0.8,4.4-1.6,8.9-2.5,13.3c-2.2,10.2-4.3,20.4-7.1,30.4c-0.7,2.4-3.3,5.6-5.6,6.1
		c-12.8,3.1-25.8,5.5-38.8,8.1c-0.2,0-0.5-0.3-1.6-0.8C198.5,282.4,215.9,262.6,234.2,243.7z M163.4,391c-0.7-0.3-1.4-0.6-2.2-0.9
		c0.8-6.1,1.5-12.2,2.4-18.3c2.2-14.9,4.3-29.9,6.6-44.8c0.6-3.7,1.3-7.6,3-10.9c1.3-2.4,4-4.9,6.6-5.5c12.5-3.2,25.2-5.7,37.8-8.5
		c0.4-0.1,1,0.1,2.5,0.4C202.8,333.7,184.3,363.2,163.4,391z M176,388.4c-0.3-0.5-0.7-0.9-1-1.4c16.9-27.3,33.8-54.6,50.6-81.9
		c0.5,0,1,0,1.6,0c6.3,21.1,12.5,42.1,19.1,64.2C222.7,375.8,199.3,382.1,176,388.4z M251.7,362.2c-0.5-0.1-1.1-0.1-1.6-0.2
		l-16.9-57.7c0.4-0.3,0.7-0.7,1.1-1c12.3,6.7,24.7,13.4,37.6,20.4C265,336.9,258.4,349.6,251.7,362.2z M302.4,359.1
		c-0.1,20.3-0.3,40.5-0.5,60.8c0,1.7-0.2,3.5-0.3,6.6c-2.1-2-3.4-2.9-4.4-4c-13.1-15.2-26.1-30.5-39.4-45.7
		c-3.6-4.1-4.1-7.6-1.3-12.4c5.6-9.7,10.6-19.9,15.9-29.8c3.8-7.2,4.8-7.1,12.5-4.2c9.1,3.5,15.5,8.9,17,18.9
		C302.5,352.4,302.4,355.8,302.4,359.1z M300.5,332.5c-5.7-3.1-11.5-5.9-17-9.2c-1.2-0.7-2.6-3.5-2.1-4.4
		c7.6-14.7,15.5-29.3,23.4-43.8c0.1-0.2,0.6-0.3,1.6-0.6c7.7,14.7,15.2,29.2,22.9,43.7c1.4,2.6,0.7,3.9-1.7,5.1
		c-5.7,3-11.4,6.1-17.1,9.2C307.1,334.2,303.8,334.3,300.5,332.5z M352.3,376.8c-13.1,15-26,30.2-39.1,45.2c-0.8,0.9-1.9,1.6-4,3.4
		c-0.4-3.8-0.8-6.2-0.8-8.6c0-22.4,0.1-44.8-0.1-67.3c0-6.7,2.5-11.4,8.7-14.2c3.4-1.6,6.6-3.7,10-5.6c4.6-2.6,7.5-2,9.9,2.6
		c5.7,10.6,11.3,21.4,16.8,32.1C356,368.8,355.8,372.8,352.3,376.8z M360.3,363.3c-1.5-2-2.3-2.9-2.9-4c-5.6-10.5-11.1-21-16.8-31.5
		c-1.1-2-2.2-3.8,0.7-5.3c11.3-6.2,22.6-12.4,34-18.6c0.4-0.2,1-0.1,2.5-0.3C372,323.2,366.4,342.5,360.3,363.3z M434.2,387.6
		c-6.4-1.4-12.8-2.7-19.1-4.4c-13.9-3.6-27.8-7.3-41.7-10.9c-6.5-1.7-8.7-4.3-6.9-10.7c5.4-18.9,11.3-37.6,18.4-56.9
		c16.8,27.2,33.5,54.3,50.3,81.5C434.8,386.8,434.5,387.2,434.2,387.6z M447,390.5c-1.7-1.5-3.8-2.8-5-4.6
		c-16.6-26.6-33.1-53.2-49.6-79.8c-0.8-1.2-1.3-2.6-2.5-5c6.5,1.5,11.9,2.6,17.3,3.9c8.5,2.1,16.9,4.6,25.4,6.5
		c5.1,1.1,7.3,4.2,8,8.8c1.2,8.7,2.3,17.4,3.3,26.2c1.4,12.4,2.9,24.7,4.1,37.1C448.1,385.8,447.3,388.2,447,390.5z"/>
	
		<radialGradient id="SVGID_00000047753348612251263380000008806805244749755778_" cx="243.5283" cy="465.3506" r="346.9589" fx="-7.0275" fy="461.9731" gradientUnits="userSpaceOnUse">
		<stop  offset="4.035168e-02" style="stop-color:#7A649B"/>
		<stop  offset="9.746089e-02" style="stop-color:#2E5088"/>
		<stop  offset="0.1952" style="stop-color:#327085"/>
		<stop  offset="0.2918" style="stop-color:#B3CB6A"/>
		<stop  offset="0.3762" style="stop-color:#D7CB56"/>
		<stop  offset="0.5161" style="stop-color:#B5CB69"/>
		<stop  offset="0.7187" style="stop-color:#327085"/>
		<stop  offset="0.9004" style="stop-color:#2E5088"/>
		<stop  offset="0.9983" style="stop-color:#7A649B"/>
	</radialGradient>
	<path style="fill:url(#SVGID_00000047753348612251263380000008806805244749755778_);" d="M302.3,428.2v7.3c0.5,0.5,1.1,1,1.5,1.6
		c0.3,0.3,0.6,0.7,0.8,1.1c0.4,0.4,0.8,0.8,1.2,1.2c0.8-1.2,1.9-2.3,2.9-3.4v-7.7H302.3z"/>
	
		<radialGradient id="SVGID_00000162325407713142036390000015999239714336906893_" cx="306.5231" cy="286.0536" r="509.0069" gradientTransform="matrix(1 0 0 -1 0 522.4744)" gradientUnits="userSpaceOnUse">
		<stop  offset="6.668252e-02" style="stop-color:#D7CB56"/>
		<stop  offset="0.3831" style="stop-color:#B3CB6A"/>
		<stop  offset="0.525" style="stop-color:#327085"/>
		<stop  offset="0.6619" style="stop-color:#2E5088"/>
		<stop  offset="0.902" style="stop-color:#7A649B"/>
	</radialGradient>
	<path style="fill:url(#SVGID_00000162325407713142036390000015999239714336906893_);" d="M302.3,428.2v7.3c0.5,0.5,1.1,1,1.5,1.6
		c0.3,0.3,0.6,0.7,0.8,1.1c0.4,0.4,0.8,0.8,1.2,1.2c0.8-1.2,1.9-2.3,2.9-3.4v-7.7H302.3z"/>
	<path class="st0" d="M438.3,224.5c3-2,6.1-4,9.1-6"/>
	
		<radialGradient id="SVGID_00000050659489168676026110000007745767257351548847_" cx="306.5231" cy="286.0537" r="509.0068" gradientTransform="matrix(1 0 0 -1 0 522.4744)" gradientUnits="userSpaceOnUse">
		<stop  offset="6.668252e-02" style="stop-color:#D7CB56"/>
		<stop  offset="0.3831" style="stop-color:#B3CB6A"/>
		<stop  offset="0.525" style="stop-color:#327085"/>
		<stop  offset="0.6619" style="stop-color:#2E5088"/>
		<stop  offset="0.902" style="stop-color:#7A649B"/>
	</radialGradient>
	<path style="fill:url(#SVGID_00000050659489168676026110000007745767257351548847_);" d="M264.3,171.7c4,0.4,7.9-2.8,8.3-6.9
		c0.4-4.1-2.7-7.9-6.9-8.3c-4.2-0.4-7.9,2.7-8.3,6.9C257.1,167.5,260.2,171.3,264.3,171.7z"/>
	
		<radialGradient id="SVGID_00000119825649982916578100000013694295887931928232_" cx="306.5231" cy="286.0537" r="509.0068" gradientTransform="matrix(1 0 0 -1 0 522.4744)" gradientUnits="userSpaceOnUse">
		<stop  offset="6.668252e-02" style="stop-color:#D7CB56"/>
		<stop  offset="0.3831" style="stop-color:#B3CB6A"/>
		<stop  offset="0.525" style="stop-color:#327085"/>
		<stop  offset="0.6619" style="stop-color:#2E5088"/>
		<stop  offset="0.902" style="stop-color:#7A649B"/>
	</radialGradient>
	<path style="fill:url(#SVGID_00000119825649982916578100000013694295887931928232_);" d="M346.1,156.5c-4.2,0.1-7.6,3.7-7.4,7.8
		c0.1,4.1,3.8,7.5,7.9,7.4c4.2-0.1,7.5-3.7,7.4-7.8C353.8,159.7,350.3,156.4,346.1,156.5z"/>
</g>
</svg>
